HIERARCHY
ROOT Hip
{
  OFFSET 0.0 0.0 0.0
  CHANNELS 6 Xposition Yposition Zposition Xrotation Yrotation Zrotation
  JOINT LowerSpine
  {
    OFFSET 0.0 0.061367 -0.03653
    CHANNELS 3 Xrotation Yrotation Zrotation
    JOINT MiddleSpine
    {
      OFFSET 0.0 0.056002 0.002633
      CHANNELS 3 Xrotation Yrotation Zrotation
      JOINT Chest
      {
        OFFSET 0.0 0.069296 -0.013882
        CHANNELS 3 Xrotation Yrotation Zrotation
        JOINT Neck
        {
          OFFSET 0.0 0.156156 -0.002923
          CHANNELS 3 Xrotation Yrotation Zrotation
          JOINT Head
          {
            OFFSET 0.0 0.088183 0.023986
            CHANNELS 3 Xrotation Yrotation Zrotation
            End Site
            {
              OFFSET 1e-06 0.123215 0.003678
            }
          }
        }
        JOINT LClavicle
        {
          OFFSET 0.014189 0.150698 0.046467
          CHANNELS 3 Xrotation Yrotation Zrotation
          JOINT LShoulder
          {
            OFFSET 0.082893 0.021616 -0.034976
            CHANNELS 3 Xrotation Yrotation Zrotation
            JOINT LForearm
            {
              OFFSET 0.195645 -0.000695 -0.001695
              CHANNELS 3 Xrotation Yrotation Zrotation
              JOINT LHand
              {
                OFFSET 0.163209 0.000474 -0.000977
                CHANNELS 3 Xrotation Yrotation Zrotation
                End Site
                {
                  OFFSET 0.0 0.006864 0.0
                }
              }
            }
          }
        }
        JOINT RClavicle
        {
          OFFSET -0.014189 0.150698 0.046467
          CHANNELS 3 Xrotation Yrotation Zrotation
          JOINT RShoulder
          {
            OFFSET -0.082908 0.021619 -0.034982
            CHANNELS 3 Xrotation Yrotation Zrotation
            JOINT RForearm
            {
              OFFSET -0.195645 -0.000695 -0.001695
              CHANNELS 3 Xrotation Yrotation Zrotation
              JOINT RHand
              {
                OFFSET -0.163209 0.000474 -0.000977
                CHANNELS 3 Xrotation Yrotation Zrotation
                End Site
                {
                  OFFSET 0.0 0.006864 0.0
                }
              }
            }
          }
        }
      }
    }
  }
  JOINT RThigh
  {
    OFFSET -0.072558 0.02774 -0.005953
    CHANNELS 3 Xrotation Yrotation Zrotation
    JOINT RShin
    {
      OFFSET -0.005253 -0.285537 0.0
      CHANNELS 3 Xrotation Yrotation Zrotation
      JOINT RFoot
      {
        OFFSET 0.0 -0.28038 0.0
        CHANNELS 3 Xrotation Yrotation Zrotation
        JOINT RToe
        {
          OFFSET 0.0 -0.030816 0.064441
          CHANNELS 3 Xrotation Yrotation Zrotation
          End Site
          {
            OFFSET 0.0 0.0 0.043231
          }
        }
      }
    }
  }
  JOINT LThigh
  {
    OFFSET 0.072557 0.027741 -0.005953
    CHANNELS 3 Xrotation Yrotation Zrotation
    JOINT LShin
    {
      OFFSET 0.005253 -0.285539 0.0
      CHANNELS 3 Xrotation Yrotation Zrotation
      JOINT LFoot
      {
        OFFSET 0.0 -0.28038 0.0
        CHANNELS 3 Xrotation Yrotation Zrotation
        JOINT LToe
        {
          OFFSET 0.0 -0.030816 0.064441
          CHANNELS 3 Xrotation Yrotation Zrotation
          End Site
          {
            OFFSET 0.0 0.0 0.043231
          }
        }
      }
    }
  }
}
MOTION
Frames: 5
Frame Time: 0.03333333333333333
-0.03165 0.572396 0.02923 16.935429 14.764813 12.600819 -14.889253 17.377892 -16.385555 1.509758 -5.674609 -27.703697 -6.838733 -21.319754 19.020525 5.047787 -28.065006 -0.966815 -4.152629 28.373991 8.568909 -4.495461 29.102428 -15.567528 15.322103 -5.041009 -38.250191 -14.424137 -28.027594 -30.960722 -13.192709 -17.365089 18.174395 22.732645 -3.687329 24.220108 -16.626581 21.458494 15.267839 -123.623337 63.271347 84.184967 24.579195 7.266222 13.340484 -13.740585 -8.63867 -23.418215 -6.383113 25.095337 13.315608 -6.700902 -16.068424 22.352076 10.226919 -22.861105 -13.655484 -12.741456 0.140256 -21.142565 -7.701837 27.615095 14.864876 16.313471 17.918756 -15.908213 -15.038955 23.338945 13.440564 
-0.036273 0.570228 0.02845 16.662558 14.474971 12.694429 -14.386957 17.017427 -16.899017 1.449019 -5.447633 -27.630754 -6.332247 -21.148237 19.19347 4.954169 -27.875937 -0.737937 -4.264927 28.16065 8.535528 -5.292139 28.63595 -14.625355 14.969291 -5.065 -38.402992 -14.549039 -27.92234 -30.654982 -13.240018 -17.273016 17.951488 22.637342 -2.858265 24.339197 -16.445972 20.138256 17.055296 -119.140839 63.156696 80.376305 24.402073 7.216183 13.299124 -13.655104 -8.758151 -23.194077 -6.278749 24.326366 13.868197 -7.357096 -15.38671 22.379177 9.934594 -22.79203 -13.641128 -12.771296 0.05547 -20.887678 -7.363431 27.122496 15.11094 15.976401 17.582846 -16.264151 -14.855385 23.241451 13.341064 
-0.040946 0.568251 0.027574 16.422678 14.133031 12.763692 -13.968005 16.681202 -17.310022 1.424471 -5.259269 -27.512779 -5.919091 -21.022383 19.239513 4.750046 -27.691767 -0.598563 -4.367848 27.951736 8.449878 -6.053205 28.098795 -13.745258 14.739651 -5.12492 -38.485397 -14.652831 -27.776665 -30.329765 -13.271734 -17.165329 17.736204 22.579401 -1.934081 24.36334 -16.128328 18.737944 18.778963 -115.295998 63.115368 77.366959 24.217995 7.194685 13.242149 -13.60575 -8.851728 -22.939316 -6.18208 23.596779 14.316611 -7.961402 -14.649716 22.419088 9.691024 -22.685698 -13.633348 -12.796924 0.010183 -20.587519 -7.040974 26.669645 15.276466 15.699309 17.185755 -16.535225 -14.687045 23.131287 13.222018 
-0.045796 0.566432 0.026597 16.238689 13.773632 12.783706 -13.609125 16.354622 -17.666325 1.420476 -5.047559 -27.382566 -5.550014 -20.900906 19.174986 4.53863 -27.507854 -0.478179 -4.483802 27.738085 8.348088 -6.776559 27.537083 -12.880316 14.591105 -5.301947 -38.451092 -14.734212 -27.658869 -30.018869 -13.311105 -17.045963 17.517971 22.514164 -0.992212 24.335274 -15.796419 17.387007 20.437225 -111.487907 63.054333 74.516647 24.016619 7.172503 13.193035 -13.61208 -8.900867 -22.692192 -6.050597 22.838808 14.757236 -8.572725 -13.923716 22.452646 9.475629 -22.571344 -13.614507 -12.854495 -0.034394 -20.209555 -6.684203 26.200701 15.438779 15.367217 16.782234 -16.787001 -14.498043 23.011938 13.102751 
-0.050998 0.564507 0.025237 16.13368 13.476295 12.840092 -13.278883 16.038658 -18.081358 1.418552 -4.850582 -27.290003 -5.315104 -20.783117 19.118639 4.325422 -27.364639 -0.34229 -4.608007 27.572285 8.232729 -7.463234 27.080605 -11.991686 14.477901 -5.596535 -38.328152 -14.80254 -27.549618 -29.727514 -13.356207 -16.943802 17.341757 22.497972 -0.070689 24.223852 -15.639619 16.480301 21.783424 -106.973785 62.79174 71.197014 23.852442 7.151365 13.171131 -13.664223 -8.839894 -22.571682 -5.977807 22.124336 15.293052 -9.266973 -13.217662 22.493486 9.252335 -22.509388 -13.604259 -12.97755 -0.034501 -19.879498 -6.338963 25.767405 15.673099 15.009247 16.403873 -17.072655 -14.311571 22.932848 13.018209 
